# xmcd CD database file
#
# Track frame offsets:
#	150
#	11139
#	34766
#	94123
#	121178
#	141021
#	171250
#	224717
#
# Disc length: 3262 seconds
#
# Revision: 0
# Processed by: cddbd v1.5PL3 Copyright (c) Steve Scherf et al.
# Submitted via: CDex 1.50beta9
#
DISCID=6f0cbc08
DTITLE=KANKAWA - KEY CLICK
DYEAR=1900
DGENRE=Jazz
TTITLE0=Rising Sun
TTITLE1=Key Click
TTITLE2=Lymbic System
TTITLE3=Life Tunnel
TTITLE4=Tango De La Organo
TTITLE5=Organic Swamp
TTITLE6=Syogyou Mujyou
TTITLE7=Life Tunnel (DJ LOGIC MIX)
EXTD=
EXTT0=
EXTT1=
EXTT2=
EXTT3=
EXTT4=
EXTT5=
EXTT6=
EXTT7=
PLAYORDER=
